<?xml version="1.0" encoding="utf-8"?>
<!-- Uploaded to: SVG Repo, www.svgrepo.com, Generator: SVG Repo Mixer Tools -->
<svg stroke="black" stroke-width="20" width="20px" height="20px" viewBox="0 0 1024 1024" fill="#000000" class="icon"  version="1.1" xmlns="http://www.w3.org/2000/svg"><path d="M254.4 289.6c-10.4-20.8-15.2-43.2-15.2-67.2 0-85.6 69.6-155.2 155.2-155.2s155.2 69.6 155.2 155.2v4h-44v-4c0-61.6-49.6-111.2-111.2-111.2s-111.2 49.6-111.2 111.2c0 16.8 4 32.8 11.2 48l1.6 3.2-39.2 19.2-2.4-3.2z" fill="" /><path d="M674.4 913.6c-23.2 0-44.8-14.4-53.6-36.8-1.6-3.2-8.8-20.8-15.2-39.2 0-0.8 0-0.8-0.8-1.6-4 0-9.6 0.8-16.8 1.6-16 1.6-40.8 4-77.6 4-40.8 0-65.6-5.6-82.4-8.8-4-0.8-7.2-1.6-9.6-1.6 0 0.8-0.8 1.6-1.6 3.2-7.2 19.2-16 41.6-16 42.4-8 21.6-29.6 36.8-53.6 36.8-7.2 0-13.6-1.6-20-4l-65.6-24.8c-14.4-5.6-25.6-16-32-30.4-6.4-13.6-6.4-29.6-1.6-44 0-0.8 12-28.8 18.4-48 1.6-4.8 1.6-4.8-4-8l-1.6-0.8C200 721.6 132 652.8 128 557.6c-1.6-35.2 1.6-68 8-99.2-9.6-3.2-21.6-8.8-34.4-17.6-32-21.6-48.8-52.8-48.8-88.8 0-38.4 20.8-72.8 53.6-86.4 2.4-0.8 5.6-1.6 8.8-1.6 8.8 0 16.8 4.8 20 13.6 4.8 11.2 0 24-11.2 28.8-16.8 7.2-27.2 24.8-27.2 46.4 0 21.6 9.6 39.2 28.8 52 8 5.6 16.8 9.6 23.2 12 1.6-3.2 2.4-6.4 4-9.6 17.6-42.4 44-76.8 79.2-104 79.2-61.6 170.4-91.2 278.4-91.2 37.6 0 74.4 4 110.4 11.2 31.2-58.4 80.8-95.2 150.4-112.8 1.6-0.8 3.2-0.8 5.6-0.8 6.4 0 12 2.4 16 7.2 5.6 6.4 7.2 14.4 4 22.4-20.8 56-30.4 88-32 127.2 40 16.8 72 41.6 96.8 74.4 26.4 36 37.6 72 41.6 97.6 0.8 0 3.2 0.8 5.6 0.8h33.6c30.4 0 55.2 24.8 55.2 55.2v100c0 30.4-24.8 55.2-55.2 55.2h-33.6c-7.2 0-8.8 1.6-13.6 11.2-24.8 52-64 92.8-112 119.2-1.6 0.8-2.4 1.6-3.2 2.4 0 0.8 0.8 1.6 0.8 1.6l10.4 28c5.6 14.4 4.8 29.6-1.6 43.2-6.4 13.6-17.6 24.8-32 30.4l-65.6 24.8c-3.2 2.4-10.4 3.2-17.6 3.2z m-67.2-120.8c27.2 0 36 16.8 40.8 31.2 6.4 18.4 13.6 36 13.6 36.8v0.8c1.6 4.8 7.2 8.8 12.8 8.8 1.6 0 3.2 0 4.8-0.8l65.6-24.8c3.2-1.6 5.6-4 7.2-7.2 1.6-3.2 1.6-7.2 0-10.4l-10.4-27.2c-2.4-4-6.4-16-2.4-30.4 2.4-8 8.8-20 24.8-28.8 40.8-22.4 72.8-56 93.6-100 4.8-9.6 17.6-36 52.8-36h33.6c6.4 0 11.2-4.8 11.2-11.2V493.6c0-6.4-4.8-11.2-11.2-11.2h-33.6c-32 0-45.6-18.4-48.8-33.6-5.6-32.8-28-112.8-124.8-146.4-8.8-3.2-14.4-11.2-14.4-20-0.8-43.2 7.2-77.6 19.2-114.4-40.8 18.4-68.8 47.2-88 90.4-3.2 8-11.2 12.8-20 12.8-1.6 0-3.2 0-5.6-0.8C592 260 552 255.2 512 255.2c-98.4 0-180 27.2-251.2 82.4-60 46.4-91.2 124-87.2 218.4 3.2 78.4 61.6 136 96.8 164l0.8 0.8c20 15.2 26.4 34.4 19.2 56.8-6.4 20-16.8 45.6-19.2 50.4-0.8 3.2-0.8 6.4 0.8 9.6 1.6 3.2 4 5.6 7.2 7.2l65.6 24.8c1.6 0.8 3.2 0.8 4.8 0.8 5.6 0 10.4-3.2 12.8-8.8 0-0.8 8.8-23.2 16-41.6 4-9.6 12-32 38.4-32 7.2 0 13.6 1.6 22.4 3.2 15.2 3.2 37.6 8 73.6 8 33.6 0 56-2.4 72.8-4 8-1.6 15.2-2.4 21.6-2.4z" fill="" /><path d="M762.4 523.2c-24 0-43.2-19.2-43.2-43.2 0-24 19.2-43.2 43.2-43.2 24 0 43.2 19.2 43.2 43.2 0 24-19.2 43.2-43.2 43.2z" fill="" /></svg>