<svg version="1.1" id="Layer_1" xmlns="http://www.w3.org/2000/svg" xmlns:xlink="http://www.w3.org/1999/xlink" x="0px" y="0px"
	 width="25px" viewBox="0 0 384 448" enable-background="new 0 0 384 448" xml:space="preserve">
<path fill="#FFFFFF" opacity="1.000000" stroke="none" 
	d="
M146.005417,378.337158 
	C131.123505,378.388397 116.940430,376.789246 103.103859,372.788788 
	C72.192047,363.851349 54.507423,342.794037 47.707756,311.897430 
	C44.871708,299.010834 43.756145,285.931519 43.743431,272.761566 
	C43.715752,244.098022 43.492851,215.430557 43.892715,186.772263 
	C44.149136,168.394913 46.463493,150.212585 54.180481,133.218765 
	C65.832855,107.558716 87.088776,94.868973 113.750099,89.693550 
	C125.382965,87.435410 137.136795,86.579437 148.990585,86.638046 
	C170.821182,86.745987 192.653275,86.757607 214.483383,86.608452 
	C219.354324,86.575180 223.084518,88.189095 226.474823,91.590591 
	C260.944305,126.173904 295.431152,160.740372 330.063354,195.160400 
	C334.046509,199.119141 335.929626,203.450821 335.916229,208.876373 
	C335.849609,235.864899 336.619598,262.874939 335.157379,289.831848 
	C334.260010,306.375244 330.800507,322.516693 322.662781,337.238373 
	C310.358643,359.497528 290.361847,370.522858 266.233429,375.278687 
	C255.765594,377.341919 245.187927,378.372162 234.495178,378.349823 
	C205.164963,378.288574 175.834534,378.334778 146.005417,378.337158 
M206.096313,151.331146 
	C206.092239,138.667740 205.998581,126.003334 206.137863,113.341499 
	C206.180466,109.469398 204.746048,108.039818 200.865479,108.071091 
	C184.703552,108.201370 168.539978,108.128098 152.376999,108.124184 
	C141.388382,108.121529 130.443527,108.353653 119.550217,110.266724 
	C93.527534,114.836830 75.609467,128.269730 69.218124,154.937408 
	C66.958229,164.366714 65.477165,173.908951 65.414421,183.554169 
	C65.211746,214.712448 65.338661,245.872818 65.305565,277.032349 
	C65.294930,287.046448 66.314873,296.952820 68.419388,306.729034 
	C72.485489,325.617523 81.610779,340.814972 100.013229,348.971863 
	C111.267021,353.960144 123.241211,356.396851 135.414124,356.556519 
	C168.067886,356.984833 200.729309,356.823303 233.387650,356.912170 
	C242.556641,356.937103 251.638031,356.119965 260.701843,354.698242 
	C287.727936,350.459076 304.508423,335.013733 310.844391,308.517731 
	C313.336548,298.095825 314.281921,287.471863 314.525757,276.860504 
	C314.946716,258.540985 314.527252,240.203568 314.731903,221.876663 
	C314.781494,217.435974 313.244629,216.220917 308.945526,216.178329 
	C290.967743,216.000259 272.955536,217.258331 255.015442,215.301010 
	C230.879272,212.667664 215.318542,202.035645 209.093430,179.004181 
	C206.730270,170.261047 206.615631,161.246964 206.096313,151.331146 
M253.424072,149.075882 
	C245.034714,140.731934 236.645355,132.387970 227.357651,123.150520 
	C227.357651,135.028351 227.267166,145.343369 227.404831,155.655334 
	C227.455688,159.465332 227.954208,163.278717 228.401993,167.072449 
	C230.355820,183.625656 238.595276,191.629120 254.924469,193.815765 
	C263.739532,194.996185 272.532654,194.535904 281.337708,194.712036 
	C286.742554,194.820160 292.151337,194.732040 297.558350,194.732040 
	C297.740692,194.308472 297.923035,193.884903 298.105347,193.461334 
	C283.376312,178.834793 268.647247,164.208237 253.424072,149.075882 
z"/>
<path fill="#FFFFFF" opacity="1.000000" stroke="none" 
	d="
M163.205841,217.792084 
	C169.811478,224.406052 176.196625,230.740204 182.513107,237.142090 
	C188.144424,242.849564 188.466171,249.021484 183.486313,253.796463 
	C179.272766,257.836639 172.499695,257.241425 167.502243,252.222809 
	C165.433197,250.144958 163.653366,247.779099 161.534790,245.301956 
	C159.602051,248.100128 160.146133,249.976501 160.138565,251.716446 
	C160.074860,266.372467 160.108215,281.028870 160.067917,295.685028 
	C160.062454,297.672333 160.008957,299.697052 159.635910,301.638794 
	C158.526581,307.412842 153.766663,311.185638 148.346710,310.781830 
	C142.951569,310.379822 138.768951,305.892242 138.719803,299.931641 
	C138.601715,285.609406 138.673523,271.285553 138.669205,256.962372 
	C138.668167,253.483231 138.669067,250.004089 138.669067,245.801590 
	C134.906448,247.359772 133.243073,250.364594 130.932739,252.511017 
	C125.800667,257.278931 119.167244,257.876709 114.884315,253.740631 
	C110.297752,249.311356 110.621414,242.662872 115.809601,237.421417 
	C123.893494,229.254532 132.039932,221.149490 140.173904,213.032288 
	C146.380234,206.838745 152.087021,206.823639 158.350601,212.960861 
	C159.897034,214.476105 161.421097,216.014175 163.205841,217.792084 
z"/>
</svg>