<?xml version="1.0" encoding="iso-8859-1"?>
<!-- Uploaded to: SVG Repo, www.svgrepo.com, Generator: SVG Repo Mixer Tools -->
<svg xmlns="http://www.w3.org/2000/svg" xmlns:xlink="http://www.w3.org/1999/xlink" version="1.1" id="Layer_1"  viewBox="0 0 235.431 235.431" xml:space="preserve" width="512" height="512">
<g>
	<path style="fill:#31a31a;" d="M89.172,211.888H52.086c-2.761,0-5-2.239-5-5v-37.086c0-2.761,2.239-5,5-5h37.086   c2.761,0,5,2.239,5,5v37.086C94.172,209.649,91.934,211.888,89.172,211.888z"/>
	<path style="fill:#31a31a;" d="M42.086,164.802H5c-2.761,0-5-2.239-5-5v-37.086c0-2.761,2.239-5,5-5h37.086c2.761,0,5,2.239,5,5   v37.086C47.086,162.563,44.848,164.802,42.086,164.802z"/>
	<path style="fill:#2c801b;" d="M136.259,164.802H99.172c-2.761,0-5-2.239-5-5v-37.086c0-2.761,2.239-5,5-5h37.086   c2.761,0,5,2.239,5,5v37.086C141.259,162.563,139.02,164.802,136.259,164.802z"/>
	<path style="fill:#31a31a;" d="M117.716,164.802H99.172c-2.761,0-5-2.239-5-5v-37.086c0-2.761,2.239-5,5-5h18.543V164.802z"/>
	<path style="fill:#2c801b;" d="M183.345,117.716h-37.086c-2.761,0-5-2.239-5-5V75.629c0-2.761,2.239-5,5-5h37.086   c2.761,0,5,2.239,5,5v37.086C188.345,115.477,186.106,117.716,183.345,117.716z"/>
	<path style="fill:#2c801b;" d="M230.431,70.629h-37.086c-2.761,0-5-2.239-5-5V28.543c0-2.761,2.239-5,5-5h37.086   c2.761,0,5,2.239,5,5v37.086C235.431,68.391,233.193,70.629,230.431,70.629z"/>
</g>















</svg>